<?xml version="1.0" encoding="UTF-8" standalone="no"?>
<!-- Created with Inkscape (http://www.inkscape.org/) -->

<svg
   width="512"
   height="512"
   viewBox="0 0 512 512"
   version="1.1"
   id="svg1"
   inkscape:version="1.4.2 (ebf0e940, 2025-05-08)"
   sodipodi:docname="members.svg"
   xmlns:inkscape="http://www.inkscape.org/namespaces/inkscape"
   xmlns:sodipodi="http://sodipodi.sourceforge.net/DTD/sodipodi-0.dtd"
   xmlns="http://www.w3.org/2000/svg"
   xmlns:svg="http://www.w3.org/2000/svg">
  <sodipodi:namedview
     id="namedview1"
     pagecolor="#505050"
     bordercolor="#eeeeee"
     borderopacity="1"
     inkscape:showpageshadow="0"
     inkscape:pageopacity="0"
     inkscape:pagecheckerboard="0"
     inkscape:deskcolor="#505050"
     inkscape:document-units="px"
     inkscape:zoom="0.43919784"
     inkscape:cx="-37.568491"
     inkscape:cy="285.74822"
     inkscape:window-width="1472"
     inkscape:window-height="820"
     inkscape:window-x="0"
     inkscape:window-y="37"
     inkscape:window-maximized="1"
     inkscape:current-layer="layer1" />
  <defs
     id="defs1" />
  <g
     inkscape:label="Слой 1"
     inkscape:groupmode="layer"
     id="layer1">
    <path
       style="fill:none;stroke:#ffffff;stroke-width:32;stroke-linecap:round;stroke-linejoin:round;stroke-dasharray:none"
       id="path1"
       sodipodi:type="arc"
       sodipodi:cx="165.91449"
       sodipodi:cy="157.72322"
       sodipodi:rx="53.506611"
       sodipodi:ry="53.700195"
       sodipodi:start="0"
       sodipodi:end="6.2768712"
       sodipodi:open="true"
       sodipodi:arc-type="arc"
       d="m 219.4211,157.72322 a 53.506611,53.700195 0 0 1 -53.42215,53.70013 53.506611,53.700195 0 0 1 -53.5908,-53.5306 53.506611,53.700195 0 0 1 53.25296,-53.86912 53.506611,53.700195 0 0 1 53.75892,53.36052" />
    <path
       id="path2"
       style="fill:none;stroke:#ffffff;stroke-width:32;stroke-linecap:round;stroke-linejoin:round;stroke-dasharray:none"
       d="m 76.72728,368.15228 c -0.15635,-49.70342 -3.983554,-156.72787 90.17298,-156.72787 95.79972,3.082 89.05648,106.17188 89.36918,155.87455"
       sodipodi:nodetypes="ccc" />
    <path
       style="fill:none;stroke:#ffffff;stroke-width:32;stroke-linecap:round;stroke-linejoin:round;stroke-dasharray:none"
       id="path1-3"
       sodipodi:type="arc"
       sodipodi:cx="344.95636"
       sodipodi:cy="197.54791"
       sodipodi:rx="53.506611"
       sodipodi:ry="53.700195"
       sodipodi:start="0"
       sodipodi:end="6.2768712"
       sodipodi:open="true"
       sodipodi:arc-type="arc"
       d="m 398.46297,197.54791 a 53.506611,53.700195 0 0 1 -53.42215,53.70013 53.506611,53.700195 0 0 1 -53.5908,-53.53059 53.506611,53.700195 0 0 1 53.25296,-53.86913 53.506611,53.700195 0 0 1 53.75892,53.36053" />
    <path
       id="path2-4"
       style="fill:none;stroke:#ffffff;stroke-width:32;stroke-linecap:round;stroke-linejoin:round;stroke-dasharray:none"
       d="m 255.76915,407.97698 c -0.15635,-49.70342 -3.98356,-156.72787 90.17298,-156.72787 95.79972,3.082 89.05648,106.17188 89.36918,155.87455"
       sodipodi:nodetypes="ccc" />
  </g>
</svg>
