{"asset":{"version":"2.0","generator":"Blockbench 5.0.7 glTF exporter"},"scenes":[{"nodes":[0,1,2,3,4],"name":"blockbench_export"}],"scene":0,"nodes":[{"translation":[0,0,-0.0625],"name":"cube","mesh":0},{"rotation":[-0.5000000000000003,0.4999999999999994,-0.4999999999999997,0.5000000000000006],"translation":[-0.0625,0.5,-0.25],"name":"cube","mesh":1},{"translation":[0,0.0625,-0.0625],"name":"cube","mesh":2},{"translation":[0,0.75,0],"name":"pyramid","mesh":3},{"translation":[0,0.25,0],"name":"pyramid","mesh":4}],"bufferViews":[{"buffer":0,"byteOffset":0,"byteLength":288,"target":34962,"byteStride":12},{"buffer":0,"byteOffset":288,"byteLength":288,"target":34962,"byteStride":12},{"buffer":0,"byteOffset":576,"byteLength":192,"target":34962,"byteStride":8},{"buffer":0,"byteOffset":768,"byteLength":72,"target":34963},{"buffer":0,"byteOffset":840,"byteLength":288,"target":34962,"byteStride":12},{"buffer":0,"byteOffset":1128,"byteLength":288,"target":34962,"byteStride":12},{"buffer":0,"byteOffset":1416,"byteLength":192,"target":34962,"byteStride":8},{"buffer":0,"byteOffset":1608,"byteLength":72,"target":34963},{"buffer":0,"byteOffset":1680,"byteLength":288,"target":34962,"byteStride":12},{"buffer":0,"byteOffset":1968,"byteLength":288,"target":34962,"byteStride":12},{"buffer":0,"byteOffset":2256,"byteLength":192,"target":34962,"byteStride":8},{"buffer":0,"byteOffset":2448,"byteLength":72,"target":34963},{"buffer":0,"byteOffset":2520,"byteLength":192,"target":34962,"byteStride":12},{"buffer":0,"byteOffset":2712,"byteLength":192,"target":34962,"byteStride":12},{"buffer":0,"byteOffset":2904,"byteLength":128,"target":34962,"byteStride":8},{"buffer":0,"byteOffset":3032,"byteLength":36,"target":34963},{"buffer":0,"byteOffset":3068,"byteLength":192,"target":34962,"byteStride":12},{"buffer":0,"byteOffset":3260,"byteLength":192,"target":34962,"byteStride":12},{"buffer":0,"byteOffset":3452,"byteLength":128,"target":34962,"byteStride":8},{"buffer":0,"byteOffset":3580,"byteLength":36,"target":34963}],"buffers":[{"byteLength":3616,"uri":"data:application/octet-stream;base64,"}],"accessors":[{"bufferView":0,"componentType":5126,"count":24,"max":[0.1875,0.0625,0.25],"min":[-0.1875,0,-0.125],"type":"VEC3"},{"bufferView":1,"componentType":5126,"count":24,"max":[1,1,1],"min":[-1,-1,-1],"type":"VEC3"},{"bufferView":2,"componentType":5126,"count":24,"max":[0.6875,0.65625],"min":[0,0],"type":"VEC2"},{"bufferView":3,"componentType":5123,"count":36,"max":[23],"min":[0],"type":"SCALAR"},{"bufferView":4,"componentType":5126,"count":24,"max":[0.125,0.0625,0.1875],"min":[-0.125,0,-0.0625],"type":"VEC3"},{"bufferView":5,"componentType":5126,"count":24,"max":[1,1,1],"min":[-1,-1,-1],"type":"VEC3"},{"bufferView":6,"componentType":5126,"count":24,"max":[0.5,0.640625],"min":[0.171875,0],"type":"VEC2"},{"bufferView":7,"componentType":5123,"count":36,"max":[23],"min":[0],"type":"SCALAR"},{"bufferView":8,"componentType":5126,"count":24,"max":[0.25,0.6875,0.3125],"min":[-0.25,0,-0.1875],"type":"VEC3"},{"bufferView":9,"componentType":5126,"count":24,"max":[1,1,1],"min":[-1,-1,-1],"type":"VEC3"},{"bufferView":10,"componentType":5126,"count":24,"max":[0.40625,0.609375],"min":[0,0],"type":"VEC2"},{"bufferView":11,"componentType":5123,"count":36,"max":[23],"min":[0],"type":"SCALAR"},{"bufferView":12,"componentType":5126,"count":16,"max":[0.25,0.5,0.25],"min":[-0.25,0,-0.25],"type":"VEC3"},{"bufferView":13,"componentType":5126,"count":16,"max":[0.8944271802902222,0.4472135901451111,0.8944271802902222],"min":[-0.8944271802902222,-1,-0.8944271802902222],"type":"VEC3"},{"bufferView":14,"componentType":5126,"count":16,"max":[0.65625,0.5593435168266296],"min":[0.36482053995132446,0],"type":"VEC2"},{"bufferView":15,"componentType":5123,"count":18,"max":[15],"min":[0],"type":"SCALAR"},{"bufferView":16,"componentType":5126,"count":16,"max":[0.375,0.5,0.125],"min":[-0.375,0,-0.125],"type":"VEC3"},{"bufferView":17,"componentType":5126,"count":16,"max":[0.800000011920929,0.6000000238418579,0.9701424837112427],"min":[-0.800000011920929,-1,-0.9701424837112427],"type":"VEC3"},{"bufferView":18,"componentType":5126,"count":16,"max":[0.6875,0.7062193155288696],"min":[0,0],"type":"VEC2"},{"bufferView":19,"componentType":5123,"count":18,"max":[15],"min":[0],"type":"SCALAR"}],"materials":[{"pbrMetallicRoughness":{"metallicFactor":0,"roughnessFactor":1,"baseColorTexture":{"index":0}},"alphaMode":"MASK","alphaCutoff":0.05,"doubleSided":true}],"textures":[{"sampler":0,"source":0,"name":"texture"}],"samplers":[{"magFilter":9728,"minFilter":9728,"wrapS":33071,"wrapT":33071}],"images":[{"mimeType":"image/png","uri":"data:image/png;base64,"}],"meshes":[{"primitives":[{"mode":4,"attributes":{"POSITION":0,"NORMAL":1,"TEXCOORD_0":2},"indices":3,"material":0}]},{"primitives":[{"mode":4,"attributes":{"POSITION":4,"NORMAL":5,"TEXCOORD_0":6},"indices":7,"material":0}]},{"primitives":[{"mode":4,"attributes":{"POSITION":8,"NORMAL":9,"TEXCOORD_0":10},"indices":11,"material":0}]},{"primitives":[{"mode":4,"attributes":{"POSITION":12,"NORMAL":13,"TEXCOORD_0":14},"indices":15,"material":0}]},{"primitives":[{"mode":4,"attributes":{"POSITION":16,"NORMAL":17,"TEXCOORD_0":18},"indices":19,"material":0}]}]}