<?xml version="1.0" encoding="UTF-8" standalone="no"?>
<!-- Created with Inkscape (http://www.inkscape.org/) -->

<svg
   width="1021.9964"
   height="274.18152"
   viewBox="0 0 1021.9964 274.18152"
   version="1.1"
   id="svg1"
   xml:space="preserve"
   inkscape:version="1.4.2 (ebf0e940, 2025-05-08)"
   sodipodi:docname="label.svg"
   inkscape:export-filename="frontend/src/icons/label.svg"
   inkscape:export-xdpi="96"
   inkscape:export-ydpi="96"
   xmlns:inkscape="http://www.inkscape.org/namespaces/inkscape"
   xmlns:sodipodi="http://sodipodi.sourceforge.net/DTD/sodipodi-0.dtd"
   xmlns="http://www.w3.org/2000/svg"
   xmlns:svg="http://www.w3.org/2000/svg"><sodipodi:namedview
     id="namedview1"
     pagecolor="#505050"
     bordercolor="#eeeeee"
     borderopacity="1"
     inkscape:showpageshadow="0"
     inkscape:pageopacity="0"
     inkscape:pagecheckerboard="0"
     inkscape:deskcolor="#505050"
     inkscape:document-units="px"
     inkscape:zoom="0.57226418"
     inkscape:cx="667.52387"
     inkscape:cy="408.90205"
     inkscape:window-width="1472"
     inkscape:window-height="817"
     inkscape:window-x="0"
     inkscape:window-y="33"
     inkscape:window-maximized="1"
     inkscape:current-layer="layer1"><inkscape:page
       x="0"
       y="0"
       width="1021.9964"
       height="274.18152"
       id="page2"
       margin="0"
       bleed="0" /></sodipodi:namedview><defs
     id="defs1" /><g
     inkscape:label="Layer 1"
     inkscape:groupmode="layer"
     id="layer1"
     transform="translate(-135.03783,-260.80038)"><g
       id="g3"
       transform="matrix(0.39741504,-0.05171696,0.05171696,0.39741504,103.5164,302.12496)"
       inkscape:export-filename="frontend/src/icons/label.svg"
       inkscape:export-xdpi="96"
       inkscape:export-ydpi="96"><g
         inkscape:label="char"
         id="layer1-2"><path
           style="baseline-shift:baseline;display:inline;overflow:visible;opacity:1;vector-effect:none;fill:#e07f72;fill-opacity:1;stroke-width:1.08006;stroke-linecap:round;stroke-linejoin:round;enable-background:accumulate;stop-color:#000000;stop-opacity:1"
           d="m 457.34126,334.15126 c 0,94.98812 -61.96753,129.72715 -193.12326,129.72715 -137.02575,0 -209.55926,-34.73903 -209.55926,-129.72715 0,-62.11609 40.83548,-163.77321 202.51525,-163.77321 161.67978,0 200.16727,107.52713 200.16727,163.77321"
           id="path2"
           sodipodi:nodetypes="csszc"
           inkscape:label="body" /><g
           id="path3"
           style="opacity:1"
           transform="matrix(-0.279539,1.0432538,-1.0432538,-0.279539,343.46661,-91.084982)"
           inkscape:label="top"><path
             style="baseline-shift:baseline;display:inline;overflow:visible;vector-effect:none;fill:#739441;fill-opacity:1;stroke-width:2.41444;stroke-linecap:round;stroke-linejoin:round;enable-background:accumulate;stop-color:#000000;stop-opacity:1"
             d="m 211.29032,201.38815 c -91.93923,-24.57623 35.18246,-187.444151 35.18246,-187.444151 0,0 56.75676,212.020391 -35.18246,187.444151 z M 141.42617,-82.077744 c -27.55832,64.369808 104.35709,92.337182 104.35709,92.337182 0,0 -66.90186,-179.823848 -104.35709,-92.337182 z"
             id="path4"
             sodipodi:nodetypes="zczscs"
             inkscape:label="grass" /><path
             id="rect5"
             style="fill:#834449;stroke-width:10;stroke-linecap:round;stroke-linejoin:round"
             d="m 260.28058,160.10404 c 6.63382,0 11.9744,2.32211 11.9744,8.95593 v 25.44559 c 0,6.63382 -5.34058,8.01385 -11.9744,8.01385 -6.63382,0 -11.9744,-1.38003 -11.9744,-8.01385 v -25.44559 c 0,-6.63382 5.34058,-8.95593 11.9744,-8.95593 z"
             sodipodi:nodetypes="sssssss"
             transform="rotate(-105,193.56734,96.609048)"
             inkscape:label="stick" /></g></g><g
         id="layer2"
         inkscape:label="face"><circle
           style="fill:#ffffff;fill-opacity:1;stroke:none;stroke-width:12.341;stroke-linecap:round;stroke-linejoin:round"
           id="path5-3"
           cx="365.24805"
           cy="311.0416"
           r="43.059174" /><circle
           style="fill:#ffffff;fill-opacity:1;stroke:none;stroke-width:12.341;stroke-linecap:round;stroke-linejoin:round"
           id="path5-3-5"
           cx="146.75195"
           cy="338.69446"
           r="43.059174" /><path
           style="fill:none;fill-opacity:1;stroke:#000000;stroke-width:15.0776;stroke-linecap:round;stroke-linejoin:round;stroke-opacity:1"
           d="m 215.18337,336.59946 c 2.98209,43.38281 88.83978,41.452 90.14513,-2.3921"
           id="path6"
           sodipodi:nodetypes="cc" /><circle
           style="fill:#000000;fill-opacity:1;stroke:none;stroke-width:35.5832;stroke-linecap:round;stroke-linejoin:round;stroke-opacity:1"
           id="path7"
           cx="143.5799"
           cy="340.69678"
           r="18.781042" /><circle
           style="fill:#000000;fill-opacity:1;stroke:none;stroke-width:35.5832;stroke-linecap:round;stroke-linejoin:round;stroke-opacity:1"
           id="path7-9"
           cx="375.43542"
           cy="311.05246"
           r="18.781042" /></g></g><path
       style="opacity:0.998473;fill:#739441;fill-opacity:1;stroke-width:5;stroke-linecap:round;stroke-linejoin:round"
       d="m 368.79168,468.08255 0.12044,-151.97426 c 2.01835,-9.53145 21.35251,-5.20429 21.15596,-0.6079 -1.71203,66.24706 3.40079,125.19506 10.94215,186.62439 -20.64322,1.6512 -31.77981,-9.17505 -32.21855,-34.04223 z"
       id="path5"
       sodipodi:nodetypes="ccccc" /><path
       id="path9"
       style="opacity:0.998473;fill:#739441;fill-opacity:1;stroke-width:5;stroke-linecap:round;stroke-linejoin:round"
       d="m 493.2003,315.1891 c -29.51249,-0.63043 -56.76588,36.96787 -59.0879,78.22656 -2.13674,37.96645 28.78748,76.61194 59.0879,78.22656 32.58641,1.73643 73.79387,-37.60377 59.08593,-78.22656 -13.47409,-37.21492 -28.16388,-77.56602 -59.08593,-78.22656 z m -0.57032,24.3164 c 22.12948,0.47272 32.64238,29.34943 42.28516,55.98243 10.52579,29.07186 -18.96458,57.22705 -42.28516,55.98437 -21.68461,-1.15551 -43.81628,-28.81354 -42.28711,-55.98437 1.66176,-29.52693 21.16638,-56.4336 42.28711,-55.98243 z" /><path
       style="opacity:0.998473;fill:#739441;fill-opacity:1;stroke-width:5;stroke-linecap:round;stroke-linejoin:round"
       d="m 625.29839,533.41571 -20.71954,-0.92086 29.00735,-61.23773 c -8.8408,-21.569 -7.71033,-46.69918 -31.96129,-62.76456 -17.46804,-19.28265 -26.34134,-40.28426 -31.57861,-62.01307 2.72094,-22.45148 14.94256,-29.55571 33.61169,-26.24474 3.87537,25.70414 3.95912,51.72424 21.75354,76.26845 13.71244,19.23929 12.98368,38.47857 16.46248,57.71786 12.64896,-21.95198 19.82254,-46.30555 16.14631,-73.08291 -3.2446,-23.63342 -0.70885,-48.42036 9.638,-74.25599 25.8355,-3.38101 43.27516,3.82405 40.97863,35.91386 -3.56086,17.32859 -9.88959,34.26176 -22.01997,50.36613 -15.84362,20.02273 -19.44417,41.79447 -27.51201,62.92802 -6.08731,27.99584 -19.21229,52.97554 -33.80658,77.32554 z"
       id="path10"
       sodipodi:nodetypes="ccccccccsccccc" /><path
       id="path11"
       style="opacity:0.998473;fill:#e07f72;stroke-width:5;stroke-linecap:round;stroke-linejoin:round"
       d="m 766.56861,456.89405 c 4.1423,9.03816 -12.70328,19.29716 -20.00106,19.6374 -10.47973,0.48859 -23.72451,-12.02596 -20.00106,-19.6374 4.04153,-8.26165 10.7338,-21.2182 20.00106,-19.63741 9.39405,1.60242 16.8061,12.66626 20.00106,19.63741 z"
       sodipodi:nodetypes="sssss" /><path
       id="path12"
       style="opacity:0.998473;fill:#e07f72;fill-opacity:1;stroke-width:5;stroke-linecap:round;stroke-linejoin:round"
       d="m 876.66709,298.43519 c -13.87336,-0.1076 -26.37144,6.85952 -36.53515,25.83008 -17.86785,54.91424 -14.4914,107.80524 -12.08985,160.78906 5.43413,18.04326 14.92751,13.99101 27.89649,11.08985 6.27884,-19.37958 -8.31349,-27.20847 5.95312,-48.56641 9.03542,-4.40942 18.38414,-5.05988 28.41016,2.41797 10.45507,16.1192 8.57201,31.3079 10.88086,48.35742 10.22876,10.13404 24.17818,11.70291 36.26758,3.02148 -5.4476,-66.66537 -14.05462,-133.18759 -41.10352,-198.87109 -6.78442,-2.50899 -13.37362,-4.01945 -19.67969,-4.06836 z m 6.42383,39.68945 c 6.66251,0.23047 10.81764,7.08461 4.43359,37.08789 -4.63408,21.7789 -4.85819,34.36899 -19.05664,33.55274 -10.50796,-0.60409 -25.35932,-19.059 -12.76751,-32.65401 13.11423,-14.15905 4.82682,-33.07751 12.76751,-34.45146 4.33305,-0.74973 10.06449,-3.69285 14.62305,-3.53516 z"
       sodipodi:nodetypes="sccccccccsssssss" /><path
       id="path11-5"
       style="opacity:0.998473;fill:#739441;fill-opacity:1;stroke-width:5;stroke-linecap:round;stroke-linejoin:round"
       d="m 393.1271,280.56998 c 4.1423,9.03816 -12.70328,19.29716 -20.00106,19.6374 -10.47973,0.48859 -23.72451,-12.02596 -20.00106,-19.6374 4.04153,-8.26165 10.7338,-21.2182 20.00106,-19.63741 9.39405,1.60242 16.8061,12.66626 20.00106,19.63741 z"
       sodipodi:nodetypes="sssss" /><path
       id="path13"
       style="opacity:0.998473;fill:#e07f72;fill-opacity:1;stroke-width:5;stroke-linecap:round;stroke-linejoin:round"
       d="m 999.11045,369.00355 c -22.51678,-0.83104 -44.31445,5.67383 -44.31445,5.67383 -1.23252,82.2163 8.20434,125.85898 20.27734,159.9707 11.62775,1.18542 19.72171,-0.72143 23.09375,-6.75976 -8.92113,-19.14049 -11.61069,-38.97447 -11.26562,-59.14454 0,0 66.57933,-2.70542 60.83403,-61.39648 -2.8727,-29.34553 -26.1083,-37.5127 -48.62505,-38.34375 z m 4.96875,29.12305 c 10.2385,-0.15199 16.4341,6.41495 11.2559,20.07422 -3.7002,9.76031 -9.0183,22.26748 -18.89848,18.90039 -8.31332,-2.83312 -17.10372,-10.85779 -18.90039,-18.90039 -2.27572,-10.18706 8.83843,-16.12335 18.90039,-18.90039 2.70323,-0.74608 5.27988,-1.13876 7.64258,-1.17383 z" /><path
       id="path13-8"
       style="opacity:0.998473;fill:#e07f72;fill-opacity:1;stroke-width:5;stroke-linecap:round;stroke-linejoin:round"
       d="m 1108.0597,305.4098 c -22.5168,-0.83104 -44.3164,5.67383 -44.3164,5.67383 -1.2325,82.2163 8.2043,125.85703 20.2773,159.96875 11.6278,1.18542 19.7218,-0.71948 23.0938,-6.75781 -8.9211,-19.14049 -11.6088,-38.97447 -11.2637,-59.14454 0,0 66.5773,-2.70542 60.832,-61.39648 -2.8726,-29.34553 -26.1063,-37.5127 -48.623,-38.34375 z m 2.7578,25.70117 c 10.3166,-0.58933 29.6004,17.56897 22.3828,24.45313 -7.8713,7.50768 -17.275,21.04131 -24.7949,20.39258 -16.0091,-1.3811 -24.5318,-13.26807 -22.0137,-22.2461 5.064,-18.05486 18.4754,-19.95859 21.5508,-21.78125 0.836,-0.49548 1.8077,-0.75739 2.875,-0.81836 z"
       inkscape:export-filename="frontend/src/icons/label.svg"
       inkscape:export-xdpi="96"
       inkscape:export-ydpi="96" /></g></svg>
